<svg viewBox="0 0 512 512" xmlns="http://www.w3.org/2000/svg">
<rect fill="#000" height="367.5404659420877" width="5.12" x="10.24" y="10.24"/>
<rect fill="#000" height="36.754046594208766" width="5.12" x="10.24" y="388.0204659420877"/>
<rect fill="#000" height="49.154678144861826" width="5.12" x="10.24" y="435.0145125362965"/>
<rect fill="#000" height="7.350809318841753" width="5.12" x="10.24" y="494.4091906811583"/>
<rect fill="#000" height="404.29451253629645" width="5.12" x="172.37333333333333" y="53.85274373185177"/>
<rect fill="#000" height="80.85890250725929" width="5.12" x="334.50666666666666" y="28.51801810503698"/>
<rect fill="#000" height="363.8650612826668" width="5.12" x="334.50666666666666" y="119.61692061229627"/>
<rect fill="#000" height="54.293077628965186" width="5.12" x="496.64" y="19.949451253629654"/>
<rect fill="#000" height="44.694390820421624" width="5.12" x="496.64" y="84.48252888259483"/>
<rect fill="#000" height="14.690224883239301" width="5.12" x="496.64" y="139.41691970301645"/>
<rect fill="#000" height="61.746798278270724" width="5.12" x="496.64" y="164.34714458625575"/>
<rect fill="#000" height="7.350809318841753" width="5.12" x="496.64" y="236.33394286452648"/>
<rect fill="#000" height="18.377023297104383" width="5.12" x="496.64" y="253.92475218336824"/>
<rect fill="#000" height="36.754046594208766" width="5.12" x="496.64" y="282.5417754804726"/>
<rect fill="#000" height="14.701618637683506" width="5.12" x="496.64" y="329.5358220746814"/>
<rect fill="#000" height="36.754046594208766" width="5.12" x="496.64" y="354.4774407123649"/>
<rect fill="#000" height="90.57906143979669" width="5.12" x="496.64" y="401.4714873065737"/>
<path d="M15.36,10.24 C93.86667,10.24,93.86667,53.852745,172.37334,53.852745 L172.37334,421.39322 C93.86667,421.39322,93.86667,377.78046,15.36,377.78046 z" fill="#0005"/>
<path d="M15.36,388.02048 C93.86667,388.02048,93.86667,421.39322,172.37334,421.39322 L172.37334,458.14725 C93.86667,458.14725,93.86667,424.7745,15.36,424.7745 z" fill="#0005"/>
<path d="M177.49333,53.852745 C256,53.852745,256,28.518019,334.50665,28.518019 L334.50665,68.94747 C256,68.94747,256,94.282196,177.49333,94.282196 z" fill="#0005"/>
<path d="M15.36,435.01453 C174.93333,435.01453,174.93333,68.94747,334.50665,68.94747 L334.50665,109.37692 C174.93333,109.37692,174.93333,475.44397,15.36,475.44397 z" fill="#0005"/>
<path d="M177.49333,94.282196 C256,94.282196,256,119.61692,334.50665,119.61692 L334.50665,483.482 C256,483.482,256,458.14725,177.49333,458.14725 z" fill="#0005"/>
<path d="M339.62668,119.61692 C418.13333,119.61692,418.13333,19.949451,496.64,19.949451 L496.64,74.24253 C418.13333,74.24253,418.13333,173.91,339.62668,173.91 z" fill="#0005"/>
<path d="M339.62668,173.91 C418.13333,173.91,418.13333,84.48253,496.64,84.48253 L496.64,120.45169 C418.13333,120.45169,418.13333,209.87917,339.62668,209.87917 z" fill="#0005"/>
<path d="M15.36,475.44397 C256,475.44397,256,120.45169,496.64,120.45169 L496.64,129.17693 C256,129.17693,256,484.1692,15.36,484.1692 z" fill="#0005"/>
<path d="M339.62668,209.87917 C418.13333,209.87917,418.13333,139.41692,496.64,139.41692 L496.64,154.10715 C418.13333,154.10715,418.13333,224.56938,339.62668,224.56938 z" fill="#0005"/>
<path d="M339.62668,224.56938 C418.13333,224.56938,418.13333,164.34714,496.64,164.34714 L496.64,226.09395 C418.13333,226.09395,418.13333,286.3162,339.62668,286.3162 z" fill="#0005"/>
<path d="M339.62668,286.3162 C418.13333,286.3162,418.13333,236.33394,496.64,236.33394 L496.64,243.68475 C418.13333,243.68475,418.13333,293.667,339.62668,293.667 z" fill="#0005"/>
<path d="M339.62668,293.667 C418.13333,293.667,418.13333,253.92476,496.64,253.92476 L496.64,272.3018 C418.13333,272.3018,418.13333,312.044,339.62668,312.044 z" fill="#0005"/>
<path d="M339.62668,312.044 C418.13333,312.044,418.13333,282.54178,496.64,282.54178 L496.64,319.2958 C418.13333,319.2958,418.13333,348.79807,339.62668,348.79807 z" fill="#0005"/>
<path d="M339.62668,348.79807 C418.13333,348.79807,418.13333,329.53583,496.64,329.53583 L496.64,344.23743 C418.13333,344.23743,418.13333,363.4997,339.62668,363.4997 z" fill="#0005"/>
<path d="M339.62668,363.4997 C418.13333,363.4997,418.13333,354.47745,496.64,354.47745 L496.64,383.88068 C418.13333,383.88068,418.13333,392.90292,339.62668,392.90292 z" fill="#0005"/>
<path d="M15.36,494.40918 C256,494.40918,256,383.88068,496.64,383.88068 L496.64,391.23148 C256,391.23148,256,501.76,15.36,501.76 z" fill="#0005"/>
<path d="M339.62668,392.90292 C418.13333,392.90292,418.13333,401.4715,496.64,401.4715 L496.64,492.05054 C418.13333,492.05054,418.13333,483.482,339.62668,483.482 z" fill="#0005"/>
</svg>