<svg viewBox="0 0 512 512" xmlns="http://www.w3.org/2000/svg">
<style>
rect.node {
	fill: #000F;
}

.edge > path {
	fill: #0004;
}

text.node, .edge > text {
	fill: #000;
	text-anchor: middle;
	dominant-baseline: central;
	font-family: sans-serif;
	font-size: 10.24px;
}

.edge:not(:hover) > text {
	display: none;
}
</style>
<rect class="node" height="247.64459518089424" style="fill:#F66F" width="5.12" x="51.2" y="75.15909453010158"/>
<rect class="node" height="24.764459518089424" style="fill:#F66F" width="5.12" x="51.2" y="339.8703563776625"/>
<rect class="node" height="33.1198643371952" style="fill:#6B7F" width="5.12" x="51.2" y="381.7014825624186"/>
<rect class="node" height="4.952891903617885" style="fill:#27BF" width="5.12" x="51.2" y="431.8880135662805"/>
<rect class="node" height="272.40905469898365" style="fill:#F66F" width="5.12" x="186.0266666666667" y="119.79547265050817"/>
<rect class="node" height="54.48181093979673" style="fill:#C5EF" width="5.12" x="320.85333333333335" y="97.64168658222565"/>
<rect class="node" height="245.1681492290853" style="fill:#F66F" width="5.12" x="320.85333333333335" y="169.19016418868904"/>
<rect class="node" height="36.582059600121696" style="fill:#777F" width="5.12" x="455.68000000000006" y="51.19999999999999"/>
<rect class="node" height="30.114573352377462" style="fill:#777F" width="5.12" x="455.68000000000006" y="104.84872626678835"/>
<rect class="node" height="9.898106824785161" style="fill:#777F" width="5.12" x="455.68000000000006" y="152.02996628583247"/>
<rect class="node" height="41.60429199039023" style="fill:#974F" width="5.12" x="455.68000000000006" y="178.9947397772843"/>
<rect class="node" height="4.952891903617885" style="fill:#974F" width="5.12" x="455.68000000000006" y="237.6656984343412"/>
<rect class="node" height="12.382229759044712" style="fill:#EC5F" width="5.12" x="455.68000000000006" y="259.6852570046258"/>
<rect class="node" height="24.764459518089424" style="fill:#EC5F" width="5.12" x="455.68000000000006" y="289.13415343033716"/>
<rect class="node" height="9.90578380723577" style="fill:#EC5F" width="5.12" x="455.68000000000006" y="330.96527961509327"/>
<rect class="node" height="24.764459518089424" style="fill:#C5EF" width="5.12" x="455.68000000000006" y="357.9377300889957"/>
<rect class="node" height="61.03114372624824" style="fill:#C5EF" width="5.12" x="455.68000000000006" y="399.7688562737518"/>
<g class="edge">
<path d="M56.32,75.159096 C121.17333,75.159096,121.17333,119.79547,186.02667,119.79547 L186.02667,367.44006 C121.17333,367.44006,121.17333,322.80368,56.32,322.80368 z" style="fill:#F665"/>
<text x="121.17333333333335" y="221.299581180752">
£50000.00
</text>
</g>
<g class="edge">
<path d="M191.14667,147.03638 C256,147.03638,256,169.19017,320.85333,169.19017 L320.85333,414.3583 C256,414.3583,256,392.20453,191.14667,392.20453 z" style="fill:#F665"/>
<text x="256" y="280.6973457690904">
£49500.00
</text>
</g>
<g class="edge">
<path d="M325.97333,353.32718 C390.82666,353.32718,390.82666,399.76886,455.68,399.76886 L455.68,460.8 C390.82666,460.8,390.82666,414.3583,325.97333,414.3583 z" style="fill:#C5E5"/>
<text x="390.8266666666667" y="407.06358484576305">
£12322.32
</text>
</g>
<g class="edge">
<path d="M325.97333,239.90594 C390.82666,239.90594,390.82666,178.99474,455.68,178.99474 L455.68,220.59903 C390.82666,220.59903,390.82666,281.51022,325.97333,281.51022 z" style="fill:#9845"/>
<text x="390.8266666666667" y="230.25248843317553">
£8400.00
</text>
</g>
<g class="edge">
<path d="M325.97333,169.19017 C390.82666,169.19017,390.82666,51.2,455.68,51.2 L455.68,87.78206 C390.82666,87.78206,390.82666,205.77222,325.97333,205.77222 z" style="fill:#7775"/>
<text x="390.8266666666667" y="128.48611189440535">
£7386.00
</text>
</g>
<g class="edge">
<path d="M191.14667,119.79547 C256,119.79547,256,97.641685,320.85333,97.641685 L320.85333,124.88259 C256,124.88259,256,147.03638,191.14667,147.03638 z" style="fill:#C5E5"/>
<text x="256" y="122.33903235131609">
£5500.00
</text>
</g>
<g class="edge">
<path d="M56.32,381.70148 C188.58667,381.70148,188.58667,124.88259,320.85333,124.88259 L320.85333,152.1235 C188.58667,152.1235,188.58667,408.94238,56.32,408.94238 z" style="fill:#6B75"/>
<text x="188.58666666666667" y="266.9124900422205">
£5500.00
</text>
</g>
<g class="edge">
<path d="M56.32,339.87036 C121.17333,339.87036,121.17333,367.44006,186.02667,367.44006 L186.02667,392.20453 C121.17333,392.20453,121.17333,364.63483,56.32,364.63483 z" style="fill:#F665"/>
<text x="121.17333333333335" y="366.0374418635772">
£5000.00
</text>
</g>
<g class="edge">
<path d="M325.97333,298.84537 C390.82666,298.84537,390.82666,289.13416,455.68,289.13416 L455.68,313.89862 C390.82666,313.89862,390.82666,323.60983,325.97333,323.60983 z" style="fill:#EC55"/>
<text x="390.8266666666667" y="306.371985850078">
£5000.00
</text>
</g>
<g class="edge">
<path d="M325.97333,205.77222 C390.82666,205.77222,390.82666,104.848724,455.68,104.848724 L455.68,129.08434 C390.82666,129.08434,390.82666,230.00784,325.97333,230.00784 z" style="fill:#7775"/>
<text x="390.8266666666667" y="167.42828227033985">
£4893.23
</text>
</g>
<g class="edge">
<path d="M325.97333,333.5156 C390.82666,333.5156,390.82666,357.93774,455.68,357.93774 L455.68,377.7493 C390.82666,377.7493,390.82666,353.32718,325.97333,353.32718 z" style="fill:#C5E5"/>
<text x="390.8266666666667" y="355.6324498902609">
£4000.00
</text>
</g>
<g class="edge">
<path d="M325.97333,286.46313 C390.82666,286.46313,390.82666,259.68527,455.68,259.68527 L455.68,272.06747 C390.82666,272.06747,390.82666,298.84537,325.97333,298.84537 z" style="fill:#EC55"/>
<text x="390.8266666666667" y="279.26530787817757">
£2500.00
</text>
</g>
<g class="edge">
<path d="M325.97333,323.60983 C390.82666,323.60983,390.82666,330.96527,455.68,330.96527 L455.68,340.87106 C390.82666,340.87106,390.82666,333.5156,325.97333,333.5156 z" style="fill:#EC55"/>
<text x="390.8266666666667" y="332.2404408460739">
£2000.00
</text>
</g>
<g class="edge">
<path d="M325.97333,230.00784 C390.82666,230.00784,390.82666,152.02997,455.68,152.02997 L455.68,161.92807 C390.82666,161.92807,390.82666,239.90594,325.97333,239.90594 z" style="fill:#7775"/>
<text x="390.8266666666667" y="195.9679556922545">
£1998.45
</text>
</g>
<g class="edge">
<path d="M56.32,408.94238 C256,408.94238,256,129.08434,455.68,129.08434 L455.68,134.9633 C256,134.9633,256,414.82135,56.32,414.82135 z" style="fill:#6B75"/>
<text x="256.00000000000006" y="271.9528438257414">
£1186.97
</text>
</g>
<g class="edge">
<path d="M325.97333,281.51022 C390.82666,281.51022,390.82666,237.6657,455.68,237.6657 L455.68,242.61859 C390.82666,242.61859,390.82666,286.46313,325.97333,286.46313 z" style="fill:#9845"/>
<text x="390.8266666666667" y="262.0644137135129">
£1000.00
</text>
</g>
<g class="edge">
<path d="M56.32,431.888 C256,431.888,256,377.7493,455.68,377.7493 L455.68,382.70218 C256,382.70218,256,436.8409,56.32,436.8409 z" style="fill:#27B5"/>
<text x="256.00000000000006" y="407.2951015866828">
£1000.00
</text>
</g>
<text class="node" x="53.760000000000005" y="198.98139212054872">
<tspan dy="-5.12" x="53.760000000000005">
Salary
</tspan>
<tspan dy="10.24" x="53.760000000000005">
£50000.00
</tspan>
</text>
<text class="node" x="53.760000000000005" y="352.25258613670724">
<tspan dy="-5.12" x="53.760000000000005">
Bonus
</tspan>
<tspan dy="10.24" x="53.760000000000005">
£5000.00
</tspan>
</text>
<text class="node" x="53.760000000000005" y="398.2614147310162">
<tspan dy="-5.12" x="53.760000000000005">
Employer
</tspan>
<tspan dy="10.24" x="53.760000000000005">
£6686.97
</tspan>
</text>
<text class="node" x="53.760000000000005" y="434.36445951808946">
<tspan dy="-5.12" x="53.760000000000005">
Government
</tspan>
<tspan dy="10.24" x="53.760000000000005">
£1000.00
</tspan>
</text>
<text class="node" x="188.5866666666667" y="256">
<tspan dy="-5.12" x="188.5866666666667">
Income
</tspan>
<tspan dy="10.24" x="188.5866666666667">
£55000.00
</tspan>
</text>
<text class="node" x="323.41333333333336" y="124.88259205212401">
<tspan dy="-5.12" x="323.41333333333336">
Pension
</tspan>
<tspan dy="10.24" x="323.41333333333336">
£11000.00
</tspan>
</text>
<text class="node" x="323.41333333333336" y="291.7742388032317">
<tspan dy="-5.12" x="323.41333333333336">
Taxable
</tspan>
<tspan dy="10.24" x="323.41333333333336">
£49500.00
</tspan>
</text>
<text class="node" x="458.24000000000007" y="69.49102980006083">
<tspan dy="-5.12" x="458.24000000000007">
Tax
</tspan>
<tspan dy="10.24" x="458.24000000000007">
£7386.00
</tspan>
</text>
<text class="node" x="458.24000000000007" y="119.90601294297707">
<tspan dy="-5.12" x="458.24000000000007">
National Insurance
</tspan>
<tspan dy="10.24" x="458.24000000000007">
£6080.20
</tspan>
</text>
<text class="node" x="458.24000000000007" y="156.97901969822504">
<tspan dy="-5.12" x="458.24000000000007">
Student Loan
</tspan>
<tspan dy="10.24" x="458.24000000000007">
£1998.45
</tspan>
</text>
<text class="node" x="458.24000000000007" y="199.7968857724794">
<tspan dy="-5.12" x="458.24000000000007">
Rent
</tspan>
<tspan dy="10.24" x="458.24000000000007">
£8400.00
</tspan>
</text>
<text class="node" x="458.24000000000007" y="240.14214438615016">
<tspan dy="-5.12" x="458.24000000000007">
Bills
</tspan>
<tspan dy="10.24" x="458.24000000000007">
£1000.00
</tspan>
</text>
<text class="node" x="458.24000000000007" y="265.8763718841481">
<tspan dy="-5.12" x="458.24000000000007">
Food
</tspan>
<tspan dy="10.24" x="458.24000000000007">
£2500.00
</tspan>
</text>
<text class="node" x="458.24000000000007" y="301.5163831893819">
<tspan dy="-5.12" x="458.24000000000007">
Travel
</tspan>
<tspan dy="10.24" x="458.24000000000007">
£5000.00
</tspan>
</text>
<text class="node" x="458.24000000000007" y="335.9181715187112">
<tspan dy="-5.12" x="458.24000000000007">
Other
</tspan>
<tspan dy="10.24" x="458.24000000000007">
£2000.00
</tspan>
</text>
<text class="node" x="458.24000000000007" y="370.3199598480404">
<tspan dy="-5.12" x="458.24000000000007">
LISA
</tspan>
<tspan dy="10.24" x="458.24000000000007">
£5000.00
</tspan>
</text>
<text class="node" x="458.24000000000007" y="430.28442813687593">
<tspan dy="-5.12" x="458.24000000000007">
ISA
</tspan>
<tspan dy="10.24" x="458.24000000000007">
£12322.32
</tspan>
</text>
</svg>