<svg viewBox="0 0 512 512" xmlns="http://www.w3.org/2000/svg">
<style>
rect.node {
	fill: #000F;
}

text.node {
	fill: #000F;
	text-anchor: middle;
	vertical-align: middle;
	font-size: 10.24px;
}

.edge > path {
	fill: #0004;
}

.edge > text {
	display: none;
	fill: #000F;
	text-anchor: middle;
	vertical-align: middle;
	font-size: 10.24px;
}

.edge:hover > text {
	display: inline;
}
</style>
<rect class="node" height="302.19993866349427" style="fill:#F66F" width="5.12" x="51.2" y="51.20000000000002"/>
<rect class="node" height="30.21999386634943" style="fill:#F66F" width="5.12" x="51.2" y="363.63993866349426"/>
<rect class="node" height="40.41606869688639" width="5.12" x="51.2" y="404.09993252984367"/>
<rect class="node" height="6.043998773269886" width="5.12" x="51.2" y="454.75600122673006"/>
<rect class="node" height="332.4199325298437" style="fill:#F66F" width="5.12" x="186.0266666666667" y="89.79003373507814"/>
<rect class="node" height="66.48398650596874" style="fill:#C5EF" width="5.12" x="320.85333333333335" y="68.04903710858596"/>
<rect class="node" height="299.1779392768593" style="fill:#F66F" width="5.12" x="320.85333333333335" y="144.7730236145547"/>
<rect class="node" height="44.640974939371375" style="fill:#777F" width="5.12" x="455.68000000000006" y="53.72199325298439"/>
<rect class="node" height="36.74872134123556" style="fill:#777F" width="5.12" x="455.68000000000006" y="108.60296819235577"/>
<rect class="node" height="12.078629348441202" style="fill:#777F" width="5.12" x="455.68000000000006" y="155.59168953359134"/>
<rect class="node" height="50.76958969546704" style="fill:#ACDF" width="5.12" x="455.68000000000006" y="177.91031888203253"/>
<rect class="node" height="6.043998773269886" style="fill:#ACDF" width="5.12" x="455.68000000000006" y="238.91990857749957"/>
<rect class="node" height="15.109996933174715" style="fill:#EC5F" width="5.12" x="455.68000000000006" y="255.20390735076944"/>
<rect class="node" height="30.21999386634943" style="fill:#EC5F" width="5.12" x="455.68000000000006" y="280.5539042839442"/>
<rect class="node" height="12.087997546539771" style="fill:#EC5F" width="5.12" x="455.68000000000006" y="321.0138981502936"/>
<rect class="node" height="30.21999386634943" style="fill:#C5EF" width="5.12" x="455.68000000000006" y="343.3418956968334"/>
<rect class="node" height="74.47611718383283" style="fill:#C5EF" width="5.12" x="455.68000000000006" y="383.8018895631828"/>
<g class="edge">
<path d="M56.32,51.2 C121.17333,51.2,121.17333,89.79003,186.02667,89.79003 L186.02667,391.98996 C121.17333,391.98996,121.17333,353.39993,56.32,353.39993 z" style="fill:#F665"/>
<text x="121.17333333333335" y="221.5949861992862">
£50000.00
</text>
</g>
<g class="edge">
<path d="M191.14667,123.03203 C256,123.03203,256,144.77303,320.85333,144.77303 L320.85333,443.95096 C256,443.95096,256,422.20996,191.14667,422.20996 z" style="fill:#F665"/>
<text x="256" y="283.49149493973823">
£49500.00
</text>
</g>
<g class="edge">
<path d="M325.97333,369.47485 C390.82666,369.47485,390.82666,383.80188,455.68,383.80188 L455.68,458.278 C390.82666,458.278,390.82666,443.95096,325.97333,443.95096 z" style="fill:#C5E5"/>
<text x="390.8266666666667" y="413.87642622729845">
£12322.32
</text>
</g>
<g class="edge">
<path d="M325.97333,231.06728 C390.82666,231.06728,390.82666,177.91032,455.68,177.91032 L455.68,228.6799 C390.82666,228.6799,390.82666,281.83685,325.97333,281.83685 z" style="fill:#ACD5"/>
<text x="390.8266666666667" y="229.8735911886002">
£8400.00
</text>
</g>
<g class="edge">
<path d="M325.97333,144.77303 C390.82666,144.77303,390.82666,53.721992,455.68,53.721992 L455.68,98.36297 C390.82666,98.36297,390.82666,189.414,325.97333,189.414 z" style="fill:#7775"/>
<text x="390.8266666666667" y="121.56799590345523">
£7386.00
</text>
</g>
<g class="edge">
<path d="M191.14667,89.79003 C256,89.79003,256,68.049034,320.85333,68.049034 L320.85333,101.29103 C256,101.29103,256,123.03203,191.14667,123.03203 z" style="fill:#C5E5"/>
<text x="256" y="95.54053204832424">
£5500.00
</text>
</g>
<g class="edge">
<path d="M56.32,404.09995 C188.58667,404.09995,188.58667,101.29103,320.85333,101.29103 L320.85333,134.53302 C188.58667,134.53302,188.58667,437.34192,56.32,437.34192 z" style="fill:#C5E5"/>
<text x="188.58666666666667" y="269.3164780721992">
£5500.00
</text>
</g>
<g class="edge">
<path d="M56.32,363.63995 C121.17333,363.63995,121.17333,391.98996,186.02667,391.98996 L186.02667,422.20996 C121.17333,422.20996,121.17333,393.85992,56.32,393.85992 z" style="fill:#F665"/>
<text x="121.17333333333335" y="392.92495246420805">
£5000.00
</text>
</g>
<g class="edge">
<path d="M325.97333,302.99084 C390.82666,302.99084,390.82666,280.5539,455.68,280.5539 L455.68,310.7739 C390.82666,310.7739,390.82666,333.21085,325.97333,333.21085 z" style="fill:#EC55"/>
<text x="390.8266666666667" y="306.8823786759531">
£5000.00
</text>
</g>
<g class="edge">
<path d="M325.97333,189.414 C390.82666,189.414,390.82666,108.60297,455.68,108.60297 L455.68,138.17761 C390.82666,138.17761,390.82666,218.98865,325.97333,218.98865 z" style="fill:#7775"/>
<text x="390.8266666666667" y="163.79580632180767">
£4893.23
</text>
</g>
<g class="edge">
<path d="M325.97333,345.29886 C390.82666,345.29886,390.82666,343.3419,455.68,343.3419 L455.68,367.51788 C390.82666,367.51788,390.82666,369.47485,325.97333,369.47485 z" style="fill:#C5E5"/>
<text x="390.8266666666667" y="356.4083707022073">
£4000.00
</text>
</g>
<g class="edge">
<path d="M325.97333,287.88086 C390.82666,287.88086,390.82666,255.2039,455.68,255.2039 L455.68,270.3139 C390.82666,270.3139,390.82666,302.99084,325.97333,302.99084 z" style="fill:#EC55"/>
<text x="390.8266666666667" y="279.09738327619095">
£2500.00
</text>
</g>
<g class="edge">
<path d="M325.97333,333.21085 C390.82666,333.21085,390.82666,321.0139,455.68,321.0139 L455.68,333.1019 C390.82666,333.1019,390.82666,345.29886,325.97333,345.29886 z" style="fill:#EC55"/>
<text x="390.8266666666667" y="333.15637438239764">
£2000.00
</text>
</g>
<g class="edge">
<path d="M325.97333,218.98865 C390.82666,218.98865,390.82666,155.59169,455.68,155.59169 L455.68,167.67032 C390.82666,167.67032,390.82666,231.06728,325.97333,231.06728 z" style="fill:#7775"/>
<text x="390.8266666666667" y="193.32948166664607">
£1998.45
</text>
</g>
<g class="edge">
<path d="M56.32,437.34192 C256,437.34192,256,138.17761,455.68,138.17761 L455.68,145.35168 C256,145.35168,256,444.516,56.32,444.516 z" style="fill:#7775"/>
<text x="256.00000000000006" y="291.3468076582097">
£1186.97
</text>
</g>
<g class="edge">
<path d="M325.97333,281.83685 C390.82666,281.83685,390.82666,238.9199,455.68,238.9199 L455.68,244.96391 C390.82666,244.96391,390.82666,287.88086,325.97333,287.88086 z" style="fill:#ACD5"/>
<text x="390.8266666666667" y="263.40038542296867">
£1000.00
</text>
</g>
<g class="edge">
<path d="M56.32,454.756 C256,454.756,256,367.51788,455.68,367.51788 L455.68,373.5619 C256,373.5619,256,460.8,56.32,460.8 z" style="fill:#C5E5"/>
<text x="256.00000000000006" y="414.15894539495645">
£1000.00
</text>
</g>
<text class="node" x="53.760000000000005" y="202.29996933174715">
<tspan dy="0" x="53.760000000000005">
Salary
</tspan>
<tspan dy="10.24" x="53.760000000000005">
£50000.00
</tspan>
</text>
<text class="node" x="53.760000000000005" y="378.749935596669">
<tspan dy="0" x="53.760000000000005">
Bonus
</tspan>
<tspan dy="10.24" x="53.760000000000005">
£5000.00
</tspan>
</text>
<text class="node" x="53.760000000000005" y="424.3079668782869">
<tspan dy="0" x="53.760000000000005">
Employer
</tspan>
<tspan dy="10.24" x="53.760000000000005">
£6686.97
</tspan>
</text>
<text class="node" x="53.760000000000005" y="457.778000613365">
<tspan dy="0" x="53.760000000000005">
Government
</tspan>
<tspan dy="10.24" x="53.760000000000005">
£1000.00
</tspan>
</text>
<text class="node" x="188.5866666666667" y="256">
<tspan dy="0" x="188.5866666666667">
Income
</tspan>
<tspan dy="10.24" x="188.5866666666667">
£55000.00
</tspan>
</text>
<text class="node" x="323.41333333333336" y="101.29103036157034">
<tspan dy="0" x="323.41333333333336">
Pension
</tspan>
<tspan dy="10.24" x="323.41333333333336">
£11000.00
</tspan>
</text>
<text class="node" x="323.41333333333336" y="294.36199325298435">
<tspan dy="0" x="323.41333333333336">
Taxable
</tspan>
<tspan dy="10.24" x="323.41333333333336">
£49500.00
</tspan>
</text>
<text class="node" x="458.24000000000007" y="76.04248072267008">
<tspan dy="0" x="458.24000000000007">
Tax
</tspan>
<tspan dy="10.24" x="458.24000000000007">
£7386.00
</tspan>
</text>
<text class="node" x="458.24000000000007" y="126.97732886297355">
<tspan dy="0" x="458.24000000000007">
National Insurance
</tspan>
<tspan dy="10.24" x="458.24000000000007">
£6080.20
</tspan>
</text>
<text class="node" x="458.24000000000007" y="161.63100420781194">
<tspan dy="0" x="458.24000000000007">
Student Loan
</tspan>
<tspan dy="10.24" x="458.24000000000007">
£1998.45
</tspan>
</text>
<text class="node" x="458.24000000000007" y="203.29511372976606">
<tspan dy="0" x="458.24000000000007">
Rent
</tspan>
<tspan dy="10.24" x="458.24000000000007">
£8400.00
</tspan>
</text>
<text class="node" x="458.24000000000007" y="241.94190796413451">
<tspan dy="0" x="458.24000000000007">
Bills
</tspan>
<tspan dy="10.24" x="458.24000000000007">
£1000.00
</tspan>
</text>
<text class="node" x="458.24000000000007" y="262.7589058173568">
<tspan dy="0" x="458.24000000000007">
Food
</tspan>
<tspan dy="10.24" x="458.24000000000007">
£2500.00
</tspan>
</text>
<text class="node" x="458.24000000000007" y="295.6639012171189">
<tspan dy="0" x="458.24000000000007">
Travel
</tspan>
<tspan dy="10.24" x="458.24000000000007">
£5000.00
</tspan>
</text>
<text class="node" x="458.24000000000007" y="327.0578969235635">
<tspan dy="0" x="458.24000000000007">
Other
</tspan>
<tspan dy="10.24" x="458.24000000000007">
£2000.00
</tspan>
</text>
<text class="node" x="458.24000000000007" y="358.4518926300081">
<tspan dy="0" x="458.24000000000007">
LISA
</tspan>
<tspan dy="10.24" x="458.24000000000007">
£5000.00
</tspan>
</text>
<text class="node" x="458.24000000000007" y="421.0399481550992">
<tspan dy="0" x="458.24000000000007">
ISA
</tspan>
<tspan dy="10.24" x="458.24000000000007">
£12322.32
</tspan>
</text>
</svg>